<svg xmlns="http://www.w3.org/2000/svg" xmlns:xlink="http://www.w3.org/1999/xlink" width="100" zoomAndPan="magnify" viewBox="0 0 75 30.000001" height="40" preserveAspectRatio="xMidYMid meet" version="1.0"><defs><g/><clipPath id="509c5d0ecd"><path d="M 61 5 L 73.789062 5 L 73.789062 23 L 61 23 Z M 61 5 " clip-rule="nonzero"/></clipPath><clipPath id="42d8aefe39"><path d="M 3.011719 5.507812 L 29.140625 5.507812 L 29.140625 23.652344 L 3.011719 23.652344 Z M 3.011719 5.507812 " clip-rule="nonzero"/></clipPath></defs><g fill="#ffffff" fill-opacity="1"><g transform="translate(36.422981, 22.009665)"><g><path d="M 8.128906 -14.773438 L 6.601562 -14.773438 L 6.808594 -14.234375 L 2.398438 -2.277344 C 1.820312 -0.746094 1.425781 -0.289062 0.539062 -0.289062 L 0.332031 -0.289062 L 0.332031 0 L 4.367188 0 L 4.367188 -0.289062 L 1.488281 -0.289062 C 2.132812 -0.746094 2.460938 -1.65625 2.855469 -2.730469 L 3.042969 -3.207031 C 3.539062 -4.59375 4.136719 -5.214844 5.132812 -5.214844 C 5.566406 -5.214844 6.0625 -5.109375 6.660156 -4.882812 L 6.953125 -4.757812 C 7.570312 -4.53125 8.089844 -4.449219 8.503906 -4.449219 C 9.539062 -4.449219 9.992188 -4.964844 10.074219 -5.253906 L 10.964844 -2.75 C 11.484375 -1.28125 10.882812 -0.289062 9.453125 -0.289062 L 9.246094 -0.289062 L 9.246094 0 L 9.433594 0 C 9.453125 0 9.453125 0 9.453125 0 L 14.503906 0 L 14.503906 -0.289062 L 11.089844 -0.289062 C 12.308594 -0.785156 12.804688 -1.925781 12.289062 -3.351562 Z M 6.765625 -5.152344 C 6.101562 -5.398438 5.542969 -5.523438 5.070312 -5.523438 C 4.511719 -5.523438 4.054688 -5.335938 3.683594 -4.945312 L 6.953125 -13.820312 L 9.785156 -6 C 10.054688 -5.421875 9.515625 -4.757812 8.398438 -4.757812 C 8.027344 -4.757812 7.570312 -4.839844 7.054688 -5.027344 Z M 6.765625 -5.152344 "/></g></g></g><g fill="#ffffff" fill-opacity="1"><g transform="translate(51.25545, 22.009665)"><g><path d="M 9.0625 -7.40625 L 7.65625 -6.683594 C 8.128906 -7.011719 8.585938 -7.386719 8.585938 -8.070312 C 8.585938 -9.640625 6.042969 -9.953125 4.882812 -9.953125 C 3.308594 -9.953125 1.21875 -9.289062 1.21875 -7.449219 C 1.21875 -6.414062 2.007812 -5.648438 2.917969 -5.234375 L 6.660156 -3.496094 C 7.425781 -3.144531 8.335938 -2.667969 8.335938 -1.738281 C 8.335938 -0.308594 6.125 0 5.070312 0 C 3.601562 0 1.53125 -0.558594 1.53125 -2.296875 C 1.53125 -2.792969 1.800781 -3.269531 2.234375 -3.515625 L 1.242188 -3.765625 C 0.929688 -3.453125 0.785156 -3 0.785156 -2.585938 C 0.785156 -0.394531 3.289062 0.269531 5.132812 0.269531 C 6.828125 0.269531 9.144531 -0.394531 9.144531 -2.421875 C 9.144531 -5.503906 1.964844 -5.773438 1.964844 -8.027344 C 1.964844 -9.351562 3.785156 -9.683594 4.820312 -9.683594 C 5.894531 -9.683594 7.550781 -9.308594 7.550781 -7.984375 C 7.550781 -7.324219 7.199219 -6.660156 6.722656 -6.207031 L 6.867188 -5.9375 L 9.1875 -7.160156 Z M 9.0625 -7.40625 "/></g></g></g><g clip-path="url(#509c5d0ecd)"><g fill="#ffffff" fill-opacity="1"><g transform="translate(61.247198, 22.009665)"><g><path d="M 10.921875 -3.101562 L 10.921875 -6.476562 C 10.921875 -8.585938 9.558594 -9.953125 7.386719 -9.953125 C 5.835938 -9.953125 4.28125 -8.605469 3.765625 -7.261719 L 3.765625 -13.449219 C 3.765625 -14.152344 3.269531 -14.585938 2.460938 -14.585938 L 5.132812 -16.035156 L 5.007812 -16.28125 L 1.261719 -14.253906 C 1.097656 -14.171875 0.953125 -14.089844 0.808594 -14.007812 L 0.371094 -13.777344 L 0.515625 -13.53125 L 1.40625 -14.007812 C 1.613281 -14.109375 1.820312 -14.171875 1.984375 -14.171875 C 2.234375 -14.171875 2.421875 -14.027344 2.421875 -13.570312 L 2.421875 -2.359375 C 2.421875 -1.117188 1.675781 -0.289062 0.433594 -0.289062 L 0.433594 0 L 5.441406 0 L 5.441406 -0.289062 L 1.984375 -0.289062 C 3.0625 -0.746094 3.765625 -1.71875 3.765625 -3.308594 L 3.765625 -5.855469 C 3.785156 -7.59375 5.542969 -9.683594 7.34375 -9.683594 C 8.8125 -9.683594 9.578125 -8.421875 9.578125 -6.164062 L 9.578125 -3.414062 C 9.578125 -1.632812 9.496094 -0.289062 7.304688 -0.289062 L 7.304688 0 C 7.367188 0 7.425781 0 7.511719 0 L 11.957031 0 L 11.957031 -0.289062 L 8.9375 -0.289062 C 10.097656 -0.722656 10.921875 -1.675781 10.921875 -3.101562 Z M 10.921875 -3.101562 "/></g></g></g></g><g clip-path="url(#42d8aefe39)"><path fill="#ffffff" d="M 27.640625 5.507812 C 27.472656 5.507812 27.308594 5.507812 27.140625 5.507812 L 4.65625 5.507812 C 3.929688 5.507812 3.246094 5.910156 3.082031 6.636719 C 3.039062 6.941406 3.019531 7.242188 3.039062 7.542969 L 3.039062 21.636719 C 3.019531 21.980469 3.039062 22.324219 3.121094 22.644531 C 3.351562 23.3125 3.992188 23.652344 4.675781 23.652344 L 27.640625 23.652344 C 27.679688 23.652344 27.722656 23.632812 27.765625 23.613281 C 28.59375 23.53125 29.132812 22.867188 29.132812 22.039062 L 29.132812 7.082031 C 29.132812 6.234375 28.53125 5.527344 27.640625 5.507812 Z M 3.558594 6.960938 C 3.578125 6.335938 4.074219 5.992188 4.675781 5.992188 L 25.484375 5.992188 C 26.1875 5.992188 26.914062 5.972656 27.617188 5.992188 C 28.242188 6.011719 28.636719 6.476562 28.636719 7.0625 L 28.636719 8.816406 L 6.441406 8.816406 C 5.464844 8.816406 4.511719 8.773438 3.558594 8.816406 C 3.535156 8.210938 3.535156 7.585938 3.558594 6.960938 Z M 28.613281 22.160156 C 28.613281 22.6875 28.179688 23.109375 27.617188 23.128906 C 27.597656 23.128906 27.578125 23.128906 27.578125 23.128906 L 4.78125 23.128906 C 4.34375 23.128906 3.910156 23.070312 3.683594 22.644531 C 3.515625 22.34375 3.558594 22 3.558594 21.65625 L 3.558594 9.539062 C 3.558594 9.480469 3.558594 9.398438 3.558594 9.339844 L 25.730469 9.339844 C 26.707031 9.339844 27.660156 9.378906 28.613281 9.339844 L 28.613281 21.960938 C 28.613281 22.019531 28.613281 22.101562 28.613281 22.160156 Z M 28.613281 22.160156 " fill-opacity="1" fill-rule="nonzero"/></g><path fill="#ffffff" d="M 5.300781 7.644531 C 5.300781 7.625 5.277344 7.625 5.300781 7.644531 Z M 5.300781 7.644531 " fill-opacity="1" fill-rule="nonzero"/><path fill="#ffffff" d="M 6.316406 8.109375 C 6.460938 7.949219 6.523438 7.765625 6.523438 7.542969 C 6.523438 7.503906 6.523438 7.484375 6.523438 7.445312 C 6.480469 7.121094 6.253906 6.859375 5.941406 6.738281 C 5.609375 6.617188 5.214844 6.71875 4.988281 6.980469 C 4.675781 7.34375 4.71875 7.867188 5.070312 8.191406 C 5.445312 8.492188 5.984375 8.453125 6.316406 8.109375 Z M 6.003906 7.484375 C 6.003906 7.484375 6.003906 7.503906 6.003906 7.484375 C 6.003906 7.503906 6.003906 7.503906 6.003906 7.503906 C 6.003906 7.503906 6.003906 7.503906 6.003906 7.484375 Z M 5.277344 7.484375 C 5.277344 7.464844 5.277344 7.464844 5.277344 7.445312 C 5.277344 7.425781 5.300781 7.402344 5.300781 7.363281 L 5.320312 7.324219 L 5.339844 7.28125 C 5.363281 7.261719 5.382812 7.242188 5.402344 7.222656 L 5.425781 7.222656 C 5.402344 7.242188 5.425781 7.222656 5.445312 7.222656 C 5.464844 7.203125 5.507812 7.203125 5.527344 7.183594 C 5.527344 7.183594 5.464844 7.203125 5.507812 7.183594 L 5.546875 7.160156 L 5.589844 7.160156 C 5.589844 7.160156 5.589844 7.160156 5.609375 7.160156 C 5.609375 7.160156 5.632812 7.160156 5.632812 7.160156 L 5.695312 7.160156 L 5.796875 7.183594 C 5.839844 7.203125 5.839844 7.203125 5.839844 7.203125 L 5.878906 7.242188 C 5.859375 7.222656 5.839844 7.222656 5.859375 7.242188 L 5.921875 7.304688 C 5.921875 7.324219 5.941406 7.324219 5.941406 7.34375 L 5.964844 7.382812 C 5.964844 7.402344 5.964844 7.425781 5.984375 7.425781 C 5.984375 7.445312 5.964844 7.464844 5.964844 7.484375 C 5.964844 7.503906 5.964844 7.503906 5.964844 7.523438 C 5.964844 7.542969 5.941406 7.585938 5.941406 7.605469 C 5.941406 7.605469 5.941406 7.625 5.941406 7.625 C 5.941406 7.625 5.941406 7.625 5.941406 7.644531 C 5.921875 7.664062 5.902344 7.707031 5.902344 7.726562 C 5.902344 7.726562 5.878906 7.746094 5.878906 7.746094 C 5.878906 7.746094 5.859375 7.765625 5.859375 7.765625 L 5.839844 7.765625 C 5.816406 7.785156 5.816406 7.785156 5.839844 7.765625 C 5.816406 7.785156 5.796875 7.785156 5.796875 7.808594 L 5.777344 7.828125 L 5.671875 7.867188 C 5.652344 7.867188 5.652344 7.867188 5.632812 7.867188 L 5.546875 7.867188 C 5.527344 7.867188 5.507812 7.867188 5.507812 7.847656 L 5.464844 7.828125 C 5.425781 7.808594 5.488281 7.828125 5.488281 7.828125 C 5.488281 7.828125 5.425781 7.785156 5.425781 7.785156 L 5.382812 7.765625 C 5.382812 7.765625 5.320312 7.707031 5.320312 7.707031 L 5.300781 7.6875 L 5.300781 7.644531 C 5.300781 7.644531 5.300781 7.664062 5.300781 7.664062 C 5.300781 7.664062 5.277344 7.605469 5.277344 7.585938 Z M 5.277344 7.484375 " fill-opacity="1" fill-rule="nonzero"/><path fill="#ffffff" d="M 8.390625 8.070312 C 8.515625 7.929688 8.578125 7.746094 8.597656 7.566406 C 8.597656 7.542969 8.597656 7.542969 8.597656 7.523438 C 8.597656 7.523438 8.597656 7.503906 8.597656 7.503906 C 8.597656 7.140625 8.371094 6.820312 8.015625 6.699219 C 7.683594 6.578125 7.292969 6.679688 7.0625 6.941406 C 6.75 7.304688 6.792969 7.828125 7.144531 8.148438 C 7.519531 8.472656 8.058594 8.433594 8.390625 8.070312 Z M 7.375 7.484375 C 7.375 7.464844 7.375 7.464844 7.375 7.445312 C 7.375 7.425781 7.394531 7.402344 7.394531 7.363281 L 7.414062 7.324219 L 7.4375 7.28125 C 7.457031 7.261719 7.476562 7.242188 7.5 7.222656 L 7.519531 7.222656 C 7.519531 7.222656 7.519531 7.222656 7.539062 7.222656 C 7.5625 7.203125 7.601562 7.203125 7.621094 7.183594 C 7.621094 7.183594 7.5625 7.203125 7.601562 7.183594 L 7.644531 7.160156 L 7.683594 7.160156 C 7.683594 7.160156 7.683594 7.160156 7.707031 7.160156 C 7.707031 7.160156 7.726562 7.160156 7.726562 7.160156 L 7.769531 7.160156 L 7.871094 7.183594 C 7.914062 7.203125 7.914062 7.203125 7.914062 7.203125 C 7.914062 7.203125 7.933594 7.203125 7.933594 7.222656 C 7.933594 7.222656 7.933594 7.222656 7.953125 7.242188 L 8.015625 7.304688 C 8.015625 7.324219 8.039062 7.324219 8.039062 7.34375 L 8.058594 7.382812 C 8.078125 7.425781 8.078125 7.445312 8.078125 7.464844 C 8.078125 7.464844 8.078125 7.464844 8.078125 7.484375 C 8.078125 7.484375 8.078125 7.484375 8.078125 7.503906 C 8.078125 7.523438 8.078125 7.523438 8.078125 7.542969 C 8.078125 7.566406 8.058594 7.605469 8.058594 7.625 C 8.058594 7.625 8.058594 7.644531 8.058594 7.644531 C 8.058594 7.644531 8.058594 7.644531 8.058594 7.664062 L 8.015625 7.746094 C 8.015625 7.746094 7.996094 7.765625 7.996094 7.765625 L 7.976562 7.785156 C 7.953125 7.808594 7.953125 7.808594 7.976562 7.785156 C 7.953125 7.808594 7.933594 7.808594 7.933594 7.828125 L 7.914062 7.847656 L 7.789062 7.867188 C 7.769531 7.867188 7.769531 7.867188 7.746094 7.867188 L 7.601562 7.867188 L 7.5625 7.847656 C 7.519531 7.828125 7.582031 7.847656 7.582031 7.847656 C 7.582031 7.847656 7.519531 7.808594 7.519531 7.808594 C 7.519531 7.808594 7.5 7.785156 7.476562 7.785156 C 7.476562 7.785156 7.414062 7.726562 7.414062 7.726562 L 7.394531 7.707031 L 7.414062 7.6875 L 7.414062 7.664062 C 7.414062 7.644531 7.394531 7.644531 7.414062 7.664062 C 7.414062 7.644531 7.394531 7.625 7.394531 7.605469 C 7.394531 7.605469 7.394531 7.585938 7.394531 7.566406 C 7.375 7.542969 7.375 7.503906 7.375 7.484375 Z M 7.375 7.484375 " fill-opacity="1" fill-rule="nonzero"/><path fill="#ffffff" d="M 7.375 7.484375 C 7.394531 7.425781 7.375 7.464844 7.375 7.484375 Z M 7.375 7.484375 " fill-opacity="1" fill-rule="nonzero"/><path fill="#ffffff" d="M 10.527344 8.109375 C 10.671875 7.949219 10.734375 7.765625 10.734375 7.542969 C 10.734375 7.503906 10.734375 7.484375 10.734375 7.445312 C 10.671875 7.121094 10.464844 6.859375 10.152344 6.738281 C 9.820312 6.617188 9.425781 6.71875 9.199219 6.980469 C 8.886719 7.34375 8.929688 7.867188 9.28125 8.191406 C 9.636719 8.511719 10.195312 8.453125 10.527344 8.109375 Z M 10.214844 7.484375 C 10.214844 7.484375 10.214844 7.503906 10.214844 7.484375 C 10.214844 7.503906 10.214844 7.503906 10.214844 7.503906 C 10.214844 7.503906 10.214844 7.503906 10.214844 7.484375 Z M 9.488281 7.484375 C 9.488281 7.484375 9.488281 7.464844 9.488281 7.445312 C 9.488281 7.425781 9.511719 7.382812 9.511719 7.363281 L 9.53125 7.324219 L 9.550781 7.28125 C 9.574219 7.261719 9.59375 7.242188 9.613281 7.222656 L 9.636719 7.222656 C 9.613281 7.242188 9.636719 7.222656 9.65625 7.222656 C 9.675781 7.203125 9.71875 7.203125 9.738281 7.183594 C 9.738281 7.183594 9.675781 7.203125 9.71875 7.183594 L 9.757812 7.160156 L 9.800781 7.160156 C 9.800781 7.160156 9.800781 7.160156 9.820312 7.160156 C 9.820312 7.160156 9.84375 7.160156 9.84375 7.160156 L 9.925781 7.160156 L 10.027344 7.183594 C 10.070312 7.203125 10.070312 7.203125 10.070312 7.203125 L 10.089844 7.222656 C 10.089844 7.222656 10.089844 7.222656 10.113281 7.242188 L 10.175781 7.304688 C 10.175781 7.324219 10.195312 7.324219 10.195312 7.34375 C 10.195312 7.363281 10.214844 7.363281 10.214844 7.382812 C 10.214844 7.402344 10.238281 7.425781 10.238281 7.445312 C 10.238281 7.464844 10.214844 7.484375 10.214844 7.503906 C 10.214844 7.523438 10.214844 7.523438 10.214844 7.542969 C 10.214844 7.566406 10.195312 7.605469 10.195312 7.625 C 10.195312 7.625 10.195312 7.625 10.195312 7.644531 C 10.175781 7.664062 10.152344 7.707031 10.152344 7.726562 C 10.152344 7.726562 10.132812 7.746094 10.132812 7.746094 C 10.132812 7.746094 10.113281 7.765625 10.113281 7.765625 C 10.089844 7.785156 10.089844 7.785156 10.113281 7.765625 C 10.089844 7.785156 10.070312 7.785156 10.070312 7.808594 L 10.050781 7.828125 L 9.882812 7.867188 C 9.863281 7.867188 9.863281 7.867188 9.84375 7.867188 L 9.757812 7.867188 L 9.71875 7.847656 L 9.675781 7.828125 C 9.636719 7.828125 9.695312 7.828125 9.695312 7.828125 C 9.695312 7.828125 9.636719 7.785156 9.636719 7.785156 L 9.59375 7.765625 C 9.59375 7.765625 9.550781 7.726562 9.53125 7.707031 L 9.511719 7.664062 L 9.53125 7.644531 C 9.53125 7.625 9.511719 7.585938 9.511719 7.566406 L 9.511719 7.523438 C 9.488281 7.523438 9.488281 7.503906 9.488281 7.484375 Z M 9.488281 7.484375 " fill-opacity="1" fill-rule="nonzero"/><path fill="#ffffff" d="M 9.882812 7.867188 C 9.882812 7.847656 9.84375 7.867188 9.882812 7.867188 Z M 9.882812 7.867188 " fill-opacity="1" fill-rule="nonzero"/><path fill="#ffffff" d="M 9.488281 7.484375 C 9.511719 7.425781 9.488281 7.464844 9.488281 7.484375 Z M 9.488281 7.484375 " fill-opacity="1" fill-rule="nonzero"/><path fill="#ffffff" d="M 19.136719 13.632812 C 18.929688 13.390625 18.554688 13.753906 18.761719 13.996094 L 20.773438 16.234375 L 18.761719 18.472656 C 18.535156 18.714844 18.90625 19.078125 19.136719 18.835938 L 21.3125 16.414062 C 21.417969 16.316406 21.417969 16.152344 21.3125 16.054688 Z M 19.136719 13.632812 " fill-opacity="1" fill-rule="nonzero"/><path fill="#ffffff" d="M 13.035156 13.632812 L 10.878906 16.054688 C 10.777344 16.152344 10.777344 16.316406 10.878906 16.414062 L 13.035156 18.835938 C 13.265625 19.078125 13.617188 18.714844 13.410156 18.472656 L 11.398438 16.234375 L 13.410156 13.996094 C 13.636719 13.753906 13.265625 13.390625 13.035156 13.632812 Z M 13.035156 13.632812 " fill-opacity="1" fill-rule="nonzero"/><path fill="#ffffff" d="M 17.101562 13.675781 L 14.945312 17.90625 L 14.632812 18.511719 C 14.488281 18.792969 14.925781 19.058594 15.089844 18.773438 L 17.269531 14.539062 L 17.578125 13.9375 C 17.683594 13.652344 17.246094 13.390625 17.101562 13.675781 Z M 17.101562 13.675781 " fill-opacity="1" fill-rule="nonzero"/></svg>