<svg xmlns="http://www.w3.org/2000/svg" xmlns:xlink="http://www.w3.org/1999/xlink" width="100" zoomAndPan="magnify" viewBox="0 0 75 30.000001" height="40" preserveAspectRatio="xMidYMid meet" version="1.0"><defs><g/><clipPath id="8c7f2973ac"><path d="M 61 5 L 73.789062 5 L 73.789062 23 L 61 23 Z M 61 5 " clip-rule="nonzero"/></clipPath><clipPath id="4e34ce42a3"><path d="M 2.226562 5.359375 L 27.628906 5.359375 L 27.628906 23.503906 L 2.226562 23.503906 Z M 2.226562 5.359375 " clip-rule="nonzero"/></clipPath></defs><g fill="#000000" fill-opacity="1"><g transform="translate(35.707876, 22.181538)"><g><path d="M 8.386719 -15.238281 L 6.808594 -15.238281 L 7.023438 -14.683594 L 2.476562 -2.347656 C 1.878906 -0.769531 1.472656 -0.296875 0.554688 -0.296875 L 0.339844 -0.296875 L 0.339844 0 L 4.503906 0 L 4.503906 -0.296875 L 1.535156 -0.296875 C 2.199219 -0.769531 2.539062 -1.707031 2.945312 -2.816406 L 3.136719 -3.308594 C 3.648438 -4.738281 4.269531 -5.378906 5.292969 -5.378906 C 5.742188 -5.378906 6.253906 -5.273438 6.871094 -5.039062 L 7.171875 -4.910156 C 7.8125 -4.675781 8.34375 -4.589844 8.773438 -4.589844 C 9.839844 -4.589844 10.308594 -5.121094 10.394531 -5.421875 L 11.3125 -2.839844 C 11.847656 -1.324219 11.226562 -0.296875 9.753906 -0.296875 L 9.539062 -0.296875 L 9.539062 0 L 9.734375 0 C 9.753906 0 9.753906 0 9.753906 0 L 14.960938 0 L 14.960938 -0.296875 L 11.441406 -0.296875 C 12.699219 -0.8125 13.210938 -1.984375 12.679688 -3.457031 Z M 6.980469 -5.316406 C 6.296875 -5.570312 5.71875 -5.699219 5.230469 -5.699219 C 4.652344 -5.699219 4.183594 -5.507812 3.800781 -5.101562 L 7.171875 -14.257812 L 10.097656 -6.191406 C 10.375 -5.59375 9.820312 -4.910156 8.664062 -4.910156 C 8.28125 -4.910156 7.8125 -4.996094 7.277344 -5.1875 Z M 6.980469 -5.316406 "/></g></g></g><g fill="#000000" fill-opacity="1"><g transform="translate(51.010527, 22.181538)"><g><path d="M 9.347656 -7.640625 L 7.898438 -6.894531 C 8.386719 -7.234375 8.859375 -7.621094 8.859375 -8.324219 C 8.859375 -9.945312 6.234375 -10.265625 5.039062 -10.265625 C 3.414062 -10.265625 1.257812 -9.582031 1.257812 -7.683594 C 1.257812 -6.617188 2.070312 -5.828125 3.007812 -5.398438 L 6.871094 -3.605469 C 7.664062 -3.246094 8.601562 -2.753906 8.601562 -1.792969 C 8.601562 -0.320312 6.316406 0 5.230469 0 C 3.714844 0 1.578125 -0.578125 1.578125 -2.371094 C 1.578125 -2.882812 1.855469 -3.371094 2.304688 -3.628906 L 1.28125 -3.882812 C 0.960938 -3.566406 0.8125 -3.09375 0.8125 -2.667969 C 0.8125 -0.40625 3.394531 0.277344 5.292969 0.277344 C 7.042969 0.277344 9.433594 -0.40625 9.433594 -2.496094 C 9.433594 -5.675781 2.027344 -5.957031 2.027344 -8.28125 C 2.027344 -9.648438 3.90625 -9.988281 4.972656 -9.988281 C 6.082031 -9.988281 7.789062 -9.605469 7.789062 -8.238281 C 7.789062 -7.554688 7.429688 -6.871094 6.9375 -6.402344 L 7.085938 -6.125 L 9.476562 -7.386719 Z M 9.347656 -7.640625 "/></g></g></g><g clip-path="url(#8c7f2973ac)"><g fill="#000000" fill-opacity="1"><g transform="translate(61.319005, 22.181538)"><g><path d="M 11.269531 -3.203125 L 11.269531 -6.679688 C 11.269531 -8.859375 9.859375 -10.265625 7.621094 -10.265625 C 6.019531 -10.265625 4.417969 -8.878906 3.882812 -7.492188 L 3.882812 -13.875 C 3.882812 -14.597656 3.371094 -15.046875 2.539062 -15.046875 L 5.292969 -16.542969 L 5.164062 -16.796875 L 1.300781 -14.707031 C 1.132812 -14.621094 0.980469 -14.535156 0.832031 -14.449219 L 0.382812 -14.214844 L 0.535156 -13.960938 L 1.453125 -14.449219 C 1.664062 -14.558594 1.878906 -14.621094 2.050781 -14.621094 C 2.304688 -14.621094 2.496094 -14.472656 2.496094 -14.003906 L 2.496094 -2.433594 C 2.496094 -1.152344 1.730469 -0.296875 0.449219 -0.296875 L 0.449219 0 L 5.613281 0 L 5.613281 -0.296875 L 2.050781 -0.296875 C 3.160156 -0.769531 3.882812 -1.773438 3.882812 -3.414062 L 3.882812 -6.039062 C 3.90625 -7.832031 5.71875 -9.988281 7.578125 -9.988281 C 9.09375 -9.988281 9.882812 -8.6875 9.882812 -6.359375 L 9.882812 -3.523438 C 9.882812 -1.6875 9.796875 -0.296875 7.535156 -0.296875 L 7.535156 0 C 7.597656 0 7.664062 0 7.746094 0 L 12.335938 0 L 12.335938 -0.296875 L 9.222656 -0.296875 C 10.417969 -0.746094 11.269531 -1.730469 11.269531 -3.203125 Z M 11.269531 -3.203125 "/></g></g></g></g><g clip-path="url(#4e34ce42a3)"><path fill="#000000" d="M 26.171875 5.359375 C 26.007812 5.359375 25.847656 5.359375 25.6875 5.359375 L 3.824219 5.359375 C 3.121094 5.359375 2.453125 5.761719 2.292969 6.488281 C 2.253906 6.792969 2.234375 7.09375 2.253906 7.394531 L 2.253906 21.488281 C 2.234375 21.832031 2.253906 22.175781 2.332031 22.496094 C 2.554688 23.164062 3.179688 23.503906 3.847656 23.503906 L 26.171875 23.503906 C 26.210938 23.503906 26.25 23.484375 26.292969 23.464844 C 27.097656 23.382812 27.621094 22.71875 27.621094 21.890625 L 27.621094 6.933594 C 27.621094 6.085938 27.039062 5.378906 26.171875 5.359375 Z M 2.757812 6.8125 C 2.777344 6.1875 3.261719 5.84375 3.847656 5.84375 L 24.074219 5.84375 C 24.757812 5.84375 25.464844 5.824219 26.148438 5.84375 C 26.753906 5.863281 27.136719 6.328125 27.136719 6.914062 L 27.136719 8.667969 L 5.558594 8.667969 C 4.613281 8.667969 3.683594 8.625 2.757812 8.667969 C 2.738281 8.0625 2.738281 7.4375 2.757812 6.8125 Z M 27.117188 22.011719 C 27.117188 22.539062 26.695312 22.960938 26.148438 22.980469 C 26.128906 22.980469 26.109375 22.980469 26.109375 22.980469 L 3.945312 22.980469 C 3.523438 22.980469 3.101562 22.921875 2.878906 22.496094 C 2.714844 22.195312 2.757812 21.851562 2.757812 21.507812 L 2.757812 9.390625 C 2.757812 9.332031 2.757812 9.25 2.757812 9.191406 L 24.316406 9.191406 C 25.261719 9.191406 26.191406 9.230469 27.117188 9.191406 L 27.117188 21.8125 C 27.117188 21.871094 27.117188 21.953125 27.117188 22.011719 Z M 27.117188 22.011719 " fill-opacity="1" fill-rule="nonzero"/></g><path fill="#000000" d="M 4.449219 7.496094 C 4.449219 7.476562 4.429688 7.476562 4.449219 7.496094 Z M 4.449219 7.496094 " fill-opacity="1" fill-rule="nonzero"/><path fill="#000000" d="M 5.4375 7.960938 C 5.582031 7.800781 5.640625 7.617188 5.640625 7.394531 C 5.640625 7.355469 5.640625 7.335938 5.640625 7.296875 C 5.601562 6.972656 5.378906 6.710938 5.074219 6.589844 C 4.753906 6.46875 4.371094 6.570312 4.148438 6.832031 C 3.847656 7.195312 3.886719 7.71875 4.230469 8.042969 C 4.59375 8.34375 5.117188 8.304688 5.4375 7.960938 Z M 5.136719 7.335938 C 5.136719 7.335938 5.136719 7.355469 5.136719 7.335938 C 5.136719 7.355469 5.136719 7.355469 5.136719 7.355469 C 5.136719 7.355469 5.136719 7.355469 5.136719 7.335938 Z M 4.429688 7.335938 C 4.429688 7.316406 4.429688 7.316406 4.429688 7.296875 C 4.429688 7.277344 4.449219 7.253906 4.449219 7.214844 L 4.472656 7.175781 L 4.492188 7.132812 C 4.511719 7.113281 4.53125 7.09375 4.550781 7.074219 L 4.570312 7.074219 C 4.550781 7.09375 4.570312 7.074219 4.59375 7.074219 C 4.613281 7.054688 4.652344 7.054688 4.671875 7.035156 C 4.671875 7.035156 4.613281 7.054688 4.652344 7.035156 L 4.691406 7.011719 L 4.734375 7.011719 C 4.734375 7.011719 4.734375 7.011719 4.753906 7.011719 C 4.753906 7.011719 4.773438 7.011719 4.773438 7.011719 L 4.835938 7.011719 L 4.933594 7.035156 C 4.976562 7.054688 4.976562 7.054688 4.976562 7.054688 L 5.015625 7.09375 C 4.996094 7.074219 4.976562 7.074219 4.996094 7.09375 L 5.054688 7.15625 C 5.054688 7.175781 5.074219 7.175781 5.074219 7.195312 L 5.097656 7.234375 C 5.097656 7.253906 5.097656 7.277344 5.117188 7.277344 C 5.117188 7.296875 5.097656 7.316406 5.097656 7.335938 C 5.097656 7.355469 5.097656 7.355469 5.097656 7.375 C 5.097656 7.394531 5.074219 7.4375 5.074219 7.457031 C 5.074219 7.457031 5.074219 7.476562 5.074219 7.476562 C 5.074219 7.476562 5.074219 7.476562 5.074219 7.496094 C 5.054688 7.515625 5.035156 7.558594 5.035156 7.578125 C 5.035156 7.578125 5.015625 7.597656 5.015625 7.597656 C 5.015625 7.597656 4.996094 7.617188 4.996094 7.617188 L 4.976562 7.617188 C 4.953125 7.636719 4.953125 7.636719 4.976562 7.617188 C 4.953125 7.636719 4.933594 7.636719 4.933594 7.660156 L 4.914062 7.679688 L 4.8125 7.71875 C 4.792969 7.71875 4.792969 7.71875 4.773438 7.71875 L 4.691406 7.71875 C 4.671875 7.71875 4.652344 7.71875 4.652344 7.699219 L 4.613281 7.679688 C 4.570312 7.660156 4.632812 7.679688 4.632812 7.679688 C 4.632812 7.679688 4.570312 7.636719 4.570312 7.636719 L 4.53125 7.617188 C 4.53125 7.617188 4.472656 7.558594 4.472656 7.558594 L 4.449219 7.539062 L 4.449219 7.496094 C 4.449219 7.496094 4.449219 7.515625 4.449219 7.515625 C 4.449219 7.515625 4.429688 7.457031 4.429688 7.4375 Z M 4.429688 7.335938 " fill-opacity="1" fill-rule="nonzero"/><path fill="#000000" d="M 7.457031 7.921875 C 7.578125 7.78125 7.636719 7.597656 7.65625 7.417969 C 7.65625 7.394531 7.65625 7.394531 7.65625 7.375 C 7.65625 7.375 7.65625 7.355469 7.65625 7.355469 C 7.65625 6.992188 7.433594 6.671875 7.09375 6.550781 C 6.769531 6.429688 6.386719 6.53125 6.164062 6.792969 C 5.863281 7.15625 5.902344 7.679688 6.246094 8 C 6.609375 8.324219 7.132812 8.285156 7.457031 7.921875 Z M 6.46875 7.335938 C 6.46875 7.316406 6.46875 7.316406 6.46875 7.296875 C 6.46875 7.277344 6.488281 7.253906 6.488281 7.214844 L 6.507812 7.175781 L 6.527344 7.132812 C 6.546875 7.113281 6.566406 7.09375 6.589844 7.074219 L 6.609375 7.074219 C 6.609375 7.074219 6.609375 7.074219 6.628906 7.074219 C 6.648438 7.054688 6.6875 7.054688 6.710938 7.035156 C 6.710938 7.035156 6.648438 7.054688 6.6875 7.035156 L 6.730469 7.011719 L 6.769531 7.011719 C 6.769531 7.011719 6.769531 7.011719 6.789062 7.011719 C 6.789062 7.011719 6.808594 7.011719 6.808594 7.011719 L 6.851562 7.011719 L 6.953125 7.035156 C 6.992188 7.054688 6.992188 7.054688 6.992188 7.054688 C 6.992188 7.054688 7.011719 7.054688 7.011719 7.074219 C 7.011719 7.074219 7.011719 7.074219 7.03125 7.09375 L 7.09375 7.15625 C 7.09375 7.175781 7.113281 7.175781 7.113281 7.195312 L 7.132812 7.234375 C 7.152344 7.277344 7.152344 7.296875 7.152344 7.316406 C 7.152344 7.316406 7.152344 7.316406 7.152344 7.335938 C 7.152344 7.335938 7.152344 7.335938 7.152344 7.355469 C 7.152344 7.375 7.152344 7.375 7.152344 7.394531 C 7.152344 7.417969 7.132812 7.457031 7.132812 7.476562 C 7.132812 7.476562 7.132812 7.496094 7.132812 7.496094 C 7.132812 7.496094 7.132812 7.496094 7.132812 7.515625 L 7.09375 7.597656 C 7.09375 7.597656 7.074219 7.617188 7.074219 7.617188 L 7.050781 7.636719 C 7.03125 7.660156 7.03125 7.660156 7.050781 7.636719 C 7.03125 7.660156 7.011719 7.660156 7.011719 7.679688 L 6.992188 7.699219 L 6.871094 7.71875 C 6.851562 7.71875 6.851562 7.71875 6.832031 7.71875 L 6.6875 7.71875 L 6.648438 7.699219 C 6.609375 7.679688 6.667969 7.699219 6.667969 7.699219 C 6.667969 7.699219 6.609375 7.660156 6.609375 7.660156 C 6.609375 7.660156 6.589844 7.636719 6.566406 7.636719 C 6.566406 7.636719 6.507812 7.578125 6.507812 7.578125 L 6.488281 7.558594 L 6.507812 7.539062 L 6.507812 7.515625 C 6.507812 7.496094 6.488281 7.496094 6.507812 7.515625 C 6.507812 7.496094 6.488281 7.476562 6.488281 7.457031 C 6.488281 7.457031 6.488281 7.4375 6.488281 7.417969 C 6.46875 7.394531 6.46875 7.355469 6.46875 7.335938 Z M 6.46875 7.335938 " fill-opacity="1" fill-rule="nonzero"/><path fill="#000000" d="M 6.46875 7.335938 C 6.488281 7.277344 6.46875 7.316406 6.46875 7.335938 Z M 6.46875 7.335938 " fill-opacity="1" fill-rule="nonzero"/><path fill="#000000" d="M 9.53125 7.960938 C 9.675781 7.800781 9.734375 7.617188 9.734375 7.394531 C 9.734375 7.355469 9.734375 7.335938 9.734375 7.296875 C 9.675781 6.972656 9.472656 6.710938 9.167969 6.589844 C 8.847656 6.46875 8.464844 6.570312 8.242188 6.832031 C 7.941406 7.195312 7.980469 7.71875 8.324219 8.042969 C 8.664062 8.363281 9.210938 8.304688 9.53125 7.960938 Z M 9.230469 7.335938 C 9.230469 7.335938 9.230469 7.355469 9.230469 7.335938 C 9.230469 7.355469 9.230469 7.355469 9.230469 7.355469 C 9.230469 7.355469 9.230469 7.355469 9.230469 7.335938 Z M 8.523438 7.335938 C 8.523438 7.335938 8.523438 7.316406 8.523438 7.296875 C 8.523438 7.277344 8.542969 7.234375 8.542969 7.214844 L 8.566406 7.175781 L 8.585938 7.132812 C 8.605469 7.113281 8.625 7.09375 8.644531 7.074219 L 8.664062 7.074219 C 8.644531 7.09375 8.664062 7.074219 8.6875 7.074219 C 8.707031 7.054688 8.746094 7.054688 8.765625 7.035156 C 8.765625 7.035156 8.707031 7.054688 8.746094 7.035156 L 8.785156 7.011719 L 8.828125 7.011719 C 8.828125 7.011719 8.828125 7.011719 8.847656 7.011719 C 8.847656 7.011719 8.867188 7.011719 8.867188 7.011719 L 8.949219 7.011719 L 9.050781 7.035156 C 9.089844 7.054688 9.089844 7.054688 9.089844 7.054688 L 9.109375 7.074219 C 9.109375 7.074219 9.109375 7.074219 9.128906 7.09375 L 9.191406 7.15625 C 9.191406 7.175781 9.210938 7.175781 9.210938 7.195312 C 9.210938 7.214844 9.230469 7.214844 9.230469 7.234375 C 9.230469 7.253906 9.25 7.277344 9.25 7.296875 C 9.25 7.316406 9.230469 7.335938 9.230469 7.355469 C 9.230469 7.375 9.230469 7.375 9.230469 7.394531 C 9.230469 7.417969 9.210938 7.457031 9.210938 7.476562 C 9.210938 7.476562 9.210938 7.476562 9.210938 7.496094 C 9.191406 7.515625 9.167969 7.558594 9.167969 7.578125 C 9.167969 7.578125 9.148438 7.597656 9.148438 7.597656 C 9.148438 7.597656 9.128906 7.617188 9.128906 7.617188 C 9.109375 7.636719 9.109375 7.636719 9.128906 7.617188 C 9.109375 7.636719 9.089844 7.636719 9.089844 7.660156 L 9.070312 7.679688 L 8.90625 7.71875 C 8.886719 7.71875 8.886719 7.71875 8.867188 7.71875 L 8.785156 7.71875 L 8.707031 7.679688 C 8.664062 7.679688 8.726562 7.679688 8.726562 7.679688 C 8.726562 7.679688 8.664062 7.636719 8.664062 7.636719 L 8.625 7.617188 C 8.625 7.617188 8.585938 7.578125 8.566406 7.558594 L 8.542969 7.515625 L 8.566406 7.496094 C 8.566406 7.476562 8.542969 7.4375 8.542969 7.417969 L 8.542969 7.375 C 8.523438 7.375 8.523438 7.355469 8.523438 7.335938 Z M 8.523438 7.335938 " fill-opacity="1" fill-rule="nonzero"/><path fill="#000000" d="M 8.90625 7.71875 C 8.90625 7.699219 8.867188 7.71875 8.90625 7.71875 Z M 8.90625 7.71875 " fill-opacity="1" fill-rule="nonzero"/><path fill="#000000" d="M 8.523438 7.335938 C 8.542969 7.277344 8.523438 7.316406 8.523438 7.335938 Z M 8.523438 7.335938 " fill-opacity="1" fill-rule="nonzero"/><path fill="#000000" d="M 17.902344 13.484375 C 17.699219 13.242188 17.335938 13.605469 17.539062 13.847656 L 19.496094 16.085938 L 17.539062 18.324219 C 17.316406 18.566406 17.679688 18.929688 17.902344 18.6875 L 20.019531 16.265625 C 20.121094 16.167969 20.121094 16.003906 20.019531 15.90625 Z M 17.902344 13.484375 " fill-opacity="1" fill-rule="nonzero"/><path fill="#000000" d="M 11.972656 13.484375 L 9.875 15.90625 C 9.773438 16.003906 9.773438 16.167969 9.875 16.265625 L 11.972656 18.6875 C 12.195312 18.929688 12.539062 18.566406 12.335938 18.324219 L 10.378906 16.085938 L 12.335938 13.847656 C 12.558594 13.605469 12.195312 13.242188 11.972656 13.484375 Z M 11.972656 13.484375 " fill-opacity="1" fill-rule="nonzero"/><path fill="#000000" d="M 15.925781 13.527344 L 13.828125 17.757812 L 13.527344 18.363281 C 13.382812 18.644531 13.808594 18.910156 13.96875 18.625 L 16.085938 14.390625 L 16.390625 13.789062 C 16.492188 13.503906 16.066406 13.242188 15.925781 13.527344 Z M 15.925781 13.527344 " fill-opacity="1" fill-rule="nonzero"/></svg>