<svg xmlns="http://www.w3.org/2000/svg" version="1.1" xmlns:xlink="http://www.w3.org/1999/xlink" xmlns:svgjs="http://svgjs.dev/svgjs" width="1000" height="280" viewBox="0 0 1000 280"><g transform="matrix(1,0,0,1,-0.6060417494567218,0.011193139918361794)"><svg viewBox="0 0 396 111" data-background-color="#ffffff" preserveAspectRatio="xMidYMid meet" height="280" width="1000" xmlns="http://www.w3.org/2000/svg" xmlns:xlink="http://www.w3.org/1999/xlink"><g id="tight-bounds" transform="matrix(1,0,0,1,0.23999253278486776,-0.004437280467641358)"><svg viewBox="0 0 395.52 111.00887456093525" height="111.00887456093525" width="395.52"><g><svg viewBox="0 0 699.9895838029897 196.4630256430708" height="111.00887456093525" width="395.52"><g><rect width="12.819998843946879" height="170.5901814556331" x="258.0893785612762" y="12.93642209371886" fill="#000000" opacity="1" stroke-width="0" stroke="transparent" fill-opacity="1" class="rect-o-0" data-fill-palette-color="primary" rx="1%" id="o-0" data-palette-color="#000000"></rect></g><g transform="matrix(1,0,0,1,304.4695838029898,27.15227054835495)"><svg viewBox="0 0 395.52 142.1584845463609" height="142.1584845463609" width="395.52"><g><svg viewBox="0 0 395.52 142.1584845463609" height="142.1584845463609" width="395.52"><g><svg viewBox="0 0 395.52 142.1584845463609" height="142.1584845463609" width="395.52"><g transform="matrix(1,0,0,1,0,0)"><svg width="395.52" viewBox="0.30000001192092896 -35.54999923706055 100.28999328613281 36.04999923706055" height="142.1584845463609" data-palette-color="#000000"><path d="M18.05-0.95L21.6-0.95 17.95-11.75 8.05-11.75 4.2-0.95 7.95-0.95 7.95 0 0.3 0 0.3-0.95 2.65-0.95 15.4-35.3 19.5-35.3 32.1-0.95 34.4-0.95 34.4 0 18.05 0 18.05-0.95ZM17.55-12.85L13.2-25.95 8.5-12.85 17.55-12.85ZM50.45-0.55L50.45-0.55Q52.95-0.55 54.87-1.9 56.8-3.25 56.8-5.98 56.8-8.7 54.72-10.15 52.65-11.6 48.82-12.68 45-13.75 43.27-14.55 41.55-15.35 40-16.65L40-16.65Q36.9-19.25 36.9-24.7L36.9-24.7Q36.9-29.15 40.07-32.35 43.25-35.55 48.75-35.55L48.75-35.55Q51.4-35.55 54.27-34.77 57.15-34 57.85-34 58.55-34 59.1-35L59.1-35 59.65-35 60-24.9 59.2-24.9Q56.8-29.25 54.17-31.88 51.55-34.5 48.47-34.5 45.4-34.5 43.7-33.08 42-31.65 42-29.28 42-26.9 44.02-25.63 46.05-24.35 49-23.55 51.95-22.75 52.87-22.45 53.8-22.15 55.17-21.63 56.55-21.1 57.42-20.53 58.3-19.95 59.27-19.07 60.25-18.2 60.8-17.15L60.8-17.15Q62.15-14.75 62.15-11.45L62.15-11.45Q62.15-6.05 58.77-2.78 55.4 0.5 49.9 0.5L49.9 0.5Q47.05 0.5 43.37-0.25 39.7-1 39.3-1L39.3-1Q38.6-1 37.95 0.5L37.95 0.5 37.25 0.5 36.75-11.4 37.6-11.4Q39.8-7.05 43.22-3.8 46.65-0.55 50.45-0.55ZM65.25-34.05L65.25-35 80.85-35 80.85-34.05 77.95-34.05 77.95-18.55 87.9-18.55 87.9-34.05 84.95-34.05 84.95-35 100.59-35 100.59-34.05 97.65-34.05 97.65-0.95 100.59-0.95 100.59 0 84.95 0 84.95-0.95 87.9-0.95 87.9-17.25 77.95-17.25 77.95-0.95 80.85-0.95 80.85 0 65.25 0 65.25-0.95 68.2-0.95 68.2-34.05 65.25-34.05Z" opacity="1" transform="matrix(1,0,0,1,0,0)" fill="#000000" class="undefined-text-0" data-fill-palette-color="primary" id="text-0"></path></svg></g></svg></g></svg></g></svg></g><g><svg viewBox="0 0 224.5291721635095 196.4630256430708" height="196.4630256430708" width="224.5291721635095"><g><svg xmlns="http://www.w3.org/2000/svg" version="1.1" data-icon="terminal" data-container-transform="translate(0 2)" viewBox="0 2 32 28" x="0" y="0" height="196.4630256430708" width="224.5291721635095" class="icon-icon-0" data-fill-palette-color="accent" id="icon-0"><path d="M0.5 0c-0.3 0-0.5 0.2-0.5 0.5v27c0 0.3 0.2 0.5 0.5 0.5h31c0.3 0 0.5-0.2 0.5-0.5v-27c0-0.3-0.2-0.5-0.5-0.5h-31z m2.5 4l6 3v1l-6 3v-1l5-2.5-5-2.5v-1z m9 6h9v1h-9v-1z" transform="translate(0 2)" fill="#000000" data-fill-palette-color="accent"></path></svg></g></svg></g></svg></g><defs></defs></svg><rect width="395.52" height="111.00887456093525" fill="none" stroke="none" visibility="hidden"></rect></g></svg></g></svg>